<mxfile host="app.diagrams.net" agent="Mozilla/5.0 (Windows NT 10.0; Win64; x64) AppleWebKit/537.36 (KHTML, like Gecko) Chrome/129.0.0.0 Safari/537.36" version="24.7.14">
  <diagram name="StrÃ¡nka-1" id="mTdoNo1c2i755kzHxuNf">
    <mxGraphModel dx="1195" dy="750" grid="1" gridSize="10" guides="1" tooltips="1" connect="1" arrows="1" fold="1" page="1" pageScale="1" pageWidth="827" pageHeight="1169" math="0" shadow="0">
      <root>
        <mxCell id="0" />
        <mxCell id="1" parent="0" />
        <mxCell id="oHko_nnSvH1BLuUHB7Cy-1" value="" style="ellipse;whiteSpace=wrap;html=1;aspect=fixed;strokeWidth=2;" parent="1" vertex="1">
          <mxGeometry x="50" y="290" width="80" height="80" as="geometry" />
        </mxCell>
        <mxCell id="oHko_nnSvH1BLuUHB7Cy-2" value="" style="ellipse;whiteSpace=wrap;html=1;aspect=fixed;strokeColor=default;strokeWidth=2;align=center;verticalAlign=middle;fontFamily=Helvetica;fontSize=12;fontColor=default;fillColor=default;" parent="1" vertex="1">
          <mxGeometry x="50" y="390" width="80" height="80" as="geometry" />
        </mxCell>
        <mxCell id="oHko_nnSvH1BLuUHB7Cy-3" value="" style="ellipse;whiteSpace=wrap;html=1;aspect=fixed;strokeWidth=2;" parent="1" vertex="1">
          <mxGeometry x="50" y="190" width="80" height="80" as="geometry" />
        </mxCell>
        <mxCell id="oHko_nnSvH1BLuUHB7Cy-4" value="" style="ellipse;whiteSpace=wrap;html=1;aspect=fixed;strokeColor=default;strokeWidth=2;align=center;verticalAlign=middle;fontFamily=Helvetica;fontSize=12;fontColor=default;fillColor=default;" parent="1" vertex="1">
          <mxGeometry x="50" y="540" width="80" height="80" as="geometry" />
        </mxCell>
        <mxCell id="oHko_nnSvH1BLuUHB7Cy-5" value="" style="ellipse;whiteSpace=wrap;html=1;aspect=fixed;strokeColor=default;strokeWidth=2;align=center;verticalAlign=middle;fontFamily=Helvetica;fontSize=12;fontColor=default;fillColor=default;" parent="1" vertex="1">
          <mxGeometry x="310" y="150" width="80" height="80" as="geometry" />
        </mxCell>
        <mxCell id="oHko_nnSvH1BLuUHB7Cy-6" value="" style="ellipse;whiteSpace=wrap;html=1;strokeColor=default;strokeWidth=2;align=center;verticalAlign=middle;fontFamily=Helvetica;fontSize=12;fontColor=default;fillColor=default;" parent="1" vertex="1">
          <mxGeometry x="390" y="380" width="100" height="100" as="geometry" />
        </mxCell>
        <mxCell id="oHko_nnSvH1BLuUHB7Cy-7" value="" style="rounded=0;whiteSpace=wrap;html=1;strokeColor=default;strokeWidth=2;align=center;verticalAlign=middle;fontFamily=Helvetica;fontSize=12;fontColor=default;fillColor=default;" parent="1" vertex="1">
          <mxGeometry x="580" y="380" width="160" height="100" as="geometry" />
        </mxCell>
        <mxCell id="oHko_nnSvH1BLuUHB7Cy-9" value="" style="ellipse;whiteSpace=wrap;html=1;strokeColor=default;strokeWidth=2;align=center;verticalAlign=middle;fontFamily=Helvetica;fontSize=12;fontColor=default;fillColor=default;" parent="1" vertex="1">
          <mxGeometry x="840" y="380" width="100" height="100" as="geometry" />
        </mxCell>
        <mxCell id="oHko_nnSvH1BLuUHB7Cy-11" value="" style="endArrow=classic;html=1;rounded=0;exitX=1;exitY=0.5;exitDx=0;exitDy=0;entryX=0;entryY=0.5;entryDx=0;entryDy=0;strokeColor=default;strokeWidth=2;align=center;verticalAlign=middle;fontFamily=Helvetica;fontSize=11;fontColor=default;labelBackgroundColor=default;" parent="1" source="oHko_nnSvH1BLuUHB7Cy-6" target="oHko_nnSvH1BLuUHB7Cy-7" edge="1">
          <mxGeometry width="50" height="50" relative="1" as="geometry">
            <mxPoint x="500" y="540" as="sourcePoint" />
            <mxPoint x="550" y="490" as="targetPoint" />
          </mxGeometry>
        </mxCell>
        <mxCell id="oHko_nnSvH1BLuUHB7Cy-12" value="" style="endArrow=classic;html=1;rounded=0;exitX=1;exitY=0.5;exitDx=0;exitDy=0;entryX=0;entryY=0.5;entryDx=0;entryDy=0;strokeColor=default;strokeWidth=2;align=center;verticalAlign=middle;fontFamily=Helvetica;fontSize=11;fontColor=default;labelBackgroundColor=default;" parent="1" source="oHko_nnSvH1BLuUHB7Cy-7" target="oHko_nnSvH1BLuUHB7Cy-9" edge="1">
          <mxGeometry width="50" height="50" relative="1" as="geometry">
            <mxPoint x="500" y="540" as="sourcePoint" />
            <mxPoint x="550" y="490" as="targetPoint" />
          </mxGeometry>
        </mxCell>
        <mxCell id="oHko_nnSvH1BLuUHB7Cy-13" value="" style="endArrow=classic;html=1;rounded=0;entryX=0.301;entryY=0.054;entryDx=0;entryDy=0;entryPerimeter=0;strokeColor=default;strokeWidth=2;align=center;verticalAlign=middle;fontFamily=Helvetica;fontSize=11;fontColor=default;labelBackgroundColor=default;" parent="1" source="oHko_nnSvH1BLuUHB7Cy-5" target="oHko_nnSvH1BLuUHB7Cy-6" edge="1">
          <mxGeometry width="50" height="50" relative="1" as="geometry">
            <mxPoint x="500" y="350" as="sourcePoint" />
            <mxPoint x="550" y="300" as="targetPoint" />
          </mxGeometry>
        </mxCell>
        <mxCell id="oHko_nnSvH1BLuUHB7Cy-14" value="" style="endArrow=classic;html=1;rounded=0;exitX=0.91;exitY=0.787;exitDx=0;exitDy=0;exitPerimeter=0;strokeWidth=2;" parent="1" source="oHko_nnSvH1BLuUHB7Cy-3" target="oHko_nnSvH1BLuUHB7Cy-6" edge="1">
          <mxGeometry width="50" height="50" relative="1" as="geometry">
            <mxPoint x="190" y="260" as="sourcePoint" />
            <mxPoint x="330" y="320" as="targetPoint" />
          </mxGeometry>
        </mxCell>
        <mxCell id="oHko_nnSvH1BLuUHB7Cy-15" value="" style="endArrow=classic;html=1;rounded=0;exitX=1.003;exitY=0.602;exitDx=0;exitDy=0;exitPerimeter=0;strokeColor=default;strokeWidth=2;align=center;verticalAlign=middle;fontFamily=Helvetica;fontSize=11;fontColor=default;labelBackgroundColor=default;" parent="1" source="oHko_nnSvH1BLuUHB7Cy-1" target="oHko_nnSvH1BLuUHB7Cy-6" edge="1">
          <mxGeometry width="50" height="50" relative="1" as="geometry">
            <mxPoint x="180" y="400" as="sourcePoint" />
            <mxPoint x="230" y="350" as="targetPoint" />
          </mxGeometry>
        </mxCell>
        <mxCell id="oHko_nnSvH1BLuUHB7Cy-16" value="" style="endArrow=classic;html=1;rounded=0;exitX=1;exitY=0.5;exitDx=0;exitDy=0;strokeColor=default;strokeWidth=2;align=center;verticalAlign=middle;fontFamily=Helvetica;fontSize=11;fontColor=default;labelBackgroundColor=default;" parent="1" source="oHko_nnSvH1BLuUHB7Cy-2" target="oHko_nnSvH1BLuUHB7Cy-6" edge="1">
          <mxGeometry width="50" height="50" relative="1" as="geometry">
            <mxPoint x="180" y="480" as="sourcePoint" />
            <mxPoint x="230" y="430" as="targetPoint" />
          </mxGeometry>
        </mxCell>
        <mxCell id="oHko_nnSvH1BLuUHB7Cy-17" value="" style="endArrow=classic;html=1;rounded=0;exitX=1;exitY=0.375;exitDx=0;exitDy=0;exitPerimeter=0;strokeColor=default;strokeWidth=2;align=center;verticalAlign=middle;fontFamily=Helvetica;fontSize=11;fontColor=default;labelBackgroundColor=default;" parent="1" source="oHko_nnSvH1BLuUHB7Cy-4" target="oHko_nnSvH1BLuUHB7Cy-6" edge="1">
          <mxGeometry width="50" height="50" relative="1" as="geometry">
            <mxPoint x="180" y="480" as="sourcePoint" />
            <mxPoint x="230" y="430" as="targetPoint" />
          </mxGeometry>
        </mxCell>
        <mxCell id="oHko_nnSvH1BLuUHB7Cy-18" value="" style="endArrow=none;dashed=1;html=1;dashPattern=1 3;strokeWidth=2;rounded=0;endSize=6;" parent="1" edge="1">
          <mxGeometry width="50" height="50" relative="1" as="geometry">
            <mxPoint x="90" y="480" as="sourcePoint" />
            <mxPoint x="90" y="530" as="targetPoint" />
          </mxGeometry>
        </mxCell>
        <mxCell id="oHko_nnSvH1BLuUHB7Cy-20" value="&lt;font style=&quot;font-size: 36px;&quot;&gt;x&lt;sub&gt;1&lt;/sub&gt;&lt;span style=&quot;white-space: pre;&quot;&gt;&#x9;&lt;/span&gt;&lt;/font&gt;" style="text;html=1;align=center;verticalAlign=middle;whiteSpace=wrap;rounded=0;" parent="1" vertex="1">
          <mxGeometry x="86" y="215" width="60" height="30" as="geometry" />
        </mxCell>
        <mxCell id="oHko_nnSvH1BLuUHB7Cy-21" value="&lt;font style=&quot;font-size: 36px;&quot;&gt;x&lt;sub&gt;2&lt;/sub&gt;&lt;span style=&quot;white-space: pre;&quot;&gt;&#x9;&lt;/span&gt;&lt;/font&gt;" style="text;html=1;align=center;verticalAlign=middle;whiteSpace=wrap;rounded=0;" parent="1" vertex="1">
          <mxGeometry x="86" y="315" width="60" height="30" as="geometry" />
        </mxCell>
        <mxCell id="oHko_nnSvH1BLuUHB7Cy-22" value="&lt;font style=&quot;font-size: 36px;&quot;&gt;x&lt;sub&gt;3&lt;/sub&gt;&lt;span style=&quot;white-space: pre;&quot;&gt;&#x9;&lt;/span&gt;&lt;/font&gt;" style="text;html=1;align=center;verticalAlign=middle;whiteSpace=wrap;rounded=0;" parent="1" vertex="1">
          <mxGeometry x="86" y="415" width="60" height="30" as="geometry" />
        </mxCell>
        <mxCell id="oHko_nnSvH1BLuUHB7Cy-23" value="&lt;font style=&quot;font-size: 36px;&quot;&gt;x&lt;sub&gt;n&lt;/sub&gt;&lt;span style=&quot;white-space: pre;&quot;&gt;&#x9;&lt;/span&gt;&lt;/font&gt;" style="text;html=1;align=center;verticalAlign=middle;whiteSpace=wrap;rounded=0;" parent="1" vertex="1">
          <mxGeometry x="86" y="565" width="60" height="30" as="geometry" />
        </mxCell>
        <mxCell id="oHko_nnSvH1BLuUHB7Cy-24" value="&lt;span style=&quot;font-size: 36px;&quot;&gt;b&lt;/span&gt;" style="text;html=1;align=center;verticalAlign=middle;whiteSpace=wrap;rounded=0;" parent="1" vertex="1">
          <mxGeometry x="320" y="175" width="60" height="30" as="geometry" />
        </mxCell>
        <mxCell id="oHko_nnSvH1BLuUHB7Cy-25" value="&lt;font style=&quot;font-size: 72px;&quot;&gt;z&lt;/font&gt;" style="text;html=1;align=center;verticalAlign=bottom;whiteSpace=wrap;rounded=0;fontSize=96;horizontal=1;" parent="1" vertex="1">
          <mxGeometry x="410" y="389" width="60" height="90" as="geometry" />
        </mxCell>
        <mxCell id="oHko_nnSvH1BLuUHB7Cy-26" value="&lt;font style=&quot;font-size: 72px;&quot;&gt;f(z)&lt;/font&gt;" style="text;html=1;align=center;verticalAlign=bottom;whiteSpace=wrap;rounded=0;fontSize=96;horizontal=1;" parent="1" vertex="1">
          <mxGeometry x="600" y="385" width="120" height="90" as="geometry" />
        </mxCell>
        <mxCell id="oHko_nnSvH1BLuUHB7Cy-27" value="&lt;font style=&quot;font-size: 80px;&quot;&gt;y&lt;/font&gt;" style="text;html=1;align=center;verticalAlign=bottom;whiteSpace=wrap;rounded=0;fontSize=96;horizontal=1;" parent="1" vertex="1">
          <mxGeometry x="862" y="378" width="60" height="100" as="geometry" />
        </mxCell>
        <mxCell id="oHko_nnSvH1BLuUHB7Cy-28" value="&lt;font style=&quot;font-size: 36px;&quot;&gt;w&lt;sub&gt;1&lt;/sub&gt;&lt;span style=&quot;white-space: pre;&quot;&gt;&#x9;&lt;/span&gt;&lt;/font&gt;" style="text;html=1;align=center;verticalAlign=middle;whiteSpace=wrap;rounded=0;" parent="1" vertex="1">
          <mxGeometry x="216" y="260" width="60" height="30" as="geometry" />
        </mxCell>
        <mxCell id="oHko_nnSvH1BLuUHB7Cy-29" value="&lt;font style=&quot;font-size: 36px;&quot;&gt;w&lt;sub&gt;2&lt;/sub&gt;&lt;span style=&quot;white-space: pre;&quot;&gt;&#x9;&lt;/span&gt;&lt;/font&gt;" style="text;html=1;align=center;verticalAlign=middle;whiteSpace=wrap;rounded=0;" parent="1" vertex="1">
          <mxGeometry x="196" y="320" width="60" height="30" as="geometry" />
        </mxCell>
        <mxCell id="oHko_nnSvH1BLuUHB7Cy-30" value="&lt;font style=&quot;font-size: 36px;&quot;&gt;w&lt;sub&gt;3&lt;/sub&gt;&lt;span style=&quot;white-space: pre;&quot;&gt;&#x9;&lt;/span&gt;&lt;/font&gt;" style="text;html=1;align=center;verticalAlign=middle;whiteSpace=wrap;rounded=0;" parent="1" vertex="1">
          <mxGeometry x="186" y="390" width="60" height="30" as="geometry" />
        </mxCell>
        <mxCell id="oHko_nnSvH1BLuUHB7Cy-31" value="&lt;font style=&quot;font-size: 36px;&quot;&gt;w&lt;sub&gt;n&lt;/sub&gt;&lt;span style=&quot;white-space: pre;&quot;&gt;&#x9;&lt;/span&gt;&lt;/font&gt;" style="text;html=1;align=center;verticalAlign=middle;whiteSpace=wrap;rounded=0;" parent="1" vertex="1">
          <mxGeometry x="206" y="490" width="60" height="30" as="geometry" />
        </mxCell>
      </root>
    </mxGraphModel>
  </diagram>
</mxfile>
